<?xml version="1.0" encoding="utf-8"?>
<!-- Generator: Adobe Illustrator 16.0.0, SVG Export Plug-In . SVG Version: 6.00 Build 0)  -->
<!DOCTYPE svg PUBLIC "-//W3C//DTD SVG 1.1//EN" "http://www.w3.org/Graphics/SVG/1.1/DTD/svg11.dtd">
<svg version="1.1" id="Layer_1" xmlns="http://www.w3.org/2000/svg" xmlns:xlink="http://www.w3.org/1999/xlink" x="0px" y="0px"
	 width="400px" height="560px" viewBox="0 0 400 560" enable-background="new 0 0 400 560" xml:space="preserve">
<rect y="1" fill="#AF473C" width="400" height="560"/>
<rect y="1" fill="#945D60" width="34" height="560"/>
<rect x="44" fill="#626E60" width="7" height="560"/>
<rect y="35" fill="#945D60" width="400" height="5"/>
<rect x="80" y="1" fill="#945D60" width="34" height="560"/>
<rect x="123" y="1" fill="#626E60" width="7" height="560"/>
<rect x="267" y="1" fill="#945D60" width="34" height="560"/>
<rect x="311" fill="#626E60" width="7" height="560"/>
<rect x="349" y="1" fill="#945D60" width="34" height="560"/>
<rect x="393" fill="#626E60" width="7" height="560"/>
<rect x="133" fill="#945D60" width="34" height="560"/>
<rect y="112" fill="#626E60" width="400" height="20"/>
<rect x="177" y="1" fill="#626E60" width="7" height="560"/>
<rect x="214" fill="#945D60" width="34" height="560"/>
<rect y="50" fill="#626E60" width="400" height="20"/>
<rect x="257" y="1" fill="#626E60" width="7" height="560"/>
<rect y="181" fill="#626E60" width="400" height="20"/>
<rect y="97" fill="#945D60" width="400" height="5"/>
<rect y="166" fill="#945D60" width="400" height="5"/>
<rect y="243" fill="#626E60" width="400" height="20"/>
<rect y="228" fill="#945D60" width="400" height="5"/>
<rect y="314" fill="#626E60" width="400" height="20"/>
<rect y="299" fill="#945D60" width="400" height="5"/>
<rect y="376" fill="#626E60" width="400" height="20"/>
<rect y="361" fill="#945D60" width="400" height="5"/>
<rect y="445" fill="#626E60" width="400" height="20"/>
<rect y="430" fill="#945D60" width="400" height="5"/>
<rect y="507" fill="#626E60" width="400" height="20"/>
<rect y="492" fill="#945D60" width="400" height="5"/>
</svg>
